<svg width="178" height="54" viewBox="0 0 178 54" fill="none" xmlns="http://www.w3.org/2000/svg">
<path d="M176.598 46.9869C176.598 47.6499 176.468 48.3063 176.214 48.9188C175.96 49.5312 175.588 50.0876 175.118 50.5561C174.649 51.0246 174.092 51.3961 173.48 51.6494C172.867 51.9026 172.21 52.0326 171.547 52.0319H6.23081C4.89092 52.0333 3.60533 51.5026 2.65677 50.5565C1.70821 49.6104 1.17435 48.3264 1.17261 46.9869V6.75488C1.17435 5.41475 1.708 4.13008 2.65637 3.18296C3.60474 2.23583 4.89031 1.70367 6.23081 1.70332H171.545C172.209 1.70332 172.866 1.834 173.479 2.08788C174.092 2.34176 174.649 2.71387 175.118 3.18297C175.587 3.65207 175.959 4.20896 176.213 4.82183C176.467 5.43471 176.597 6.09157 176.597 6.75488L176.598 46.9869Z" fill="white"/>
<path d="M171.547 53.2054H6.23085C4.58026 53.205 2.99722 52.5501 1.82908 51.3843C0.660948 50.2184 0.00314063 48.6369 0 46.9868L0 6.75606C0.00244182 5.1051 0.659815 3.52251 1.82791 2.35547C2.99601 1.18844 4.57944 0.532247 6.23085 0.530853L171.545 0.530853C173.197 0.532942 174.78 1.18936 175.948 2.35624C177.116 3.52313 177.773 5.10531 177.776 6.75606V46.9868C177.779 50.4168 174.979 53.2054 171.547 53.2054Z" fill="#A6A6A6"/>
<path d="M176.598 46.9869C176.598 47.6499 176.468 48.3063 176.214 48.9188C175.96 49.5312 175.588 50.0876 175.118 50.5561C174.649 51.0246 174.092 51.3961 173.48 51.6494C172.867 51.9026 172.21 52.0326 171.547 52.0319H6.23081C4.89092 52.0333 3.60533 51.5026 2.65677 50.5565C1.70821 49.6104 1.17435 48.3264 1.17261 46.9869V6.75488C1.17435 5.41475 1.708 4.13008 2.65637 3.18296C3.60474 2.23583 4.89031 1.70367 6.23081 1.70332H171.545C172.209 1.70332 172.866 1.834 173.479 2.08788C174.092 2.34176 174.649 2.71387 175.118 3.18297C175.587 3.65207 175.959 4.20896 176.213 4.82183C176.467 5.43471 176.597 6.09157 176.597 6.75488L176.598 46.9869Z" fill="black"/>
<path d="M39.6961 26.5907C39.6579 22.3452 43.1732 20.2798 43.334 20.1837C41.3431 17.2818 38.2573 16.8853 37.173 16.8537C34.5813 16.5811 32.0673 18.4041 30.7471 18.4041C29.4005 18.4041 27.3675 16.8801 25.1764 16.9249C22.3567 16.9683 19.7189 18.6004 18.2722 21.1347C15.2866 26.3022 17.5133 33.896 20.3738 38.0729C21.8047 40.1199 23.4767 42.4026 25.6652 42.3223C27.8063 42.2353 28.606 40.959 31.1898 40.959C33.7499 40.959 34.5009 42.3223 36.7329 42.2709C39.0308 42.2353 40.4775 40.216 41.8583 38.152C43.5119 35.8086 44.1759 33.4982 44.2023 33.3796C44.1496 33.3612 39.7409 31.6778 39.6961 26.5907ZM35.4799 14.106C36.6314 12.6663 37.4193 10.7076 37.2006 8.71986C35.5339 8.79363 33.4495 9.87244 32.2491 11.2806C31.1872 12.5214 30.2385 14.5552 30.4836 16.4678C32.3559 16.6074 34.2782 15.5233 35.4799 14.106Z" fill="white"/>
<path d="M171.547 0.530853H82.9985L117.681 53.2054H171.547C173.198 53.204 174.781 52.5482 175.949 51.3817C177.117 50.2152 177.774 48.6333 177.778 46.9828V6.75606C177.775 5.10521 177.117 3.52282 175.949 2.35586C174.781 1.1889 173.198 0.532595 171.547 0.530853Z" fill="url(#paint0_linear_2023_14974)"/>
<path d="M70.7082 42.0291H67.716L66.0769 36.88H60.3797L58.8183 42.0291H55.9052L61.551 24.4994H65.0373L70.7082 42.0291ZM65.5828 34.7198L64.1005 30.1424C63.9437 29.6748 63.6486 28.5736 63.2164 26.8402H63.1637C62.9898 27.5857 62.7118 28.6869 62.331 30.1424L60.8738 34.7198H65.5828ZM85.199 35.5536C85.199 37.7033 84.6153 39.4025 83.4466 40.6499C82.4004 41.7604 81.1 42.3149 79.5492 42.3149C77.8745 42.3149 76.6703 41.7182 75.939 40.5222V47.1544H73.1299V33.5435C73.1299 32.1934 73.0944 30.809 73.0258 29.389H75.4963L75.6531 31.3925H75.7058C76.6426 29.8829 78.0643 29.1282 79.9721 29.1282C81.4636 29.1282 82.7088 29.717 83.7049 30.8959C84.6996 32.0774 85.199 33.6291 85.199 35.5536ZM82.3372 35.6563C82.3372 34.4261 82.0605 33.4118 81.5045 32.6122C80.8971 31.7811 80.0815 31.3648 79.0591 31.3648C78.366 31.3648 77.7362 31.5967 77.1736 32.0537C76.6097 32.5148 76.2407 33.1167 76.0681 33.8623C75.9911 34.1411 75.9473 34.4281 75.9377 34.7172V36.826C75.9377 37.7441 76.2197 38.52 76.7836 39.1549C77.3475 39.7872 78.0801 40.1046 78.9813 40.1046C80.0393 40.1046 80.8628 39.695 81.4518 38.8822C82.0421 38.0669 82.3372 36.992 82.3372 35.6563ZM99.7412 35.5536C99.7412 37.7033 99.1575 39.4025 97.9888 40.6499C96.9413 41.7604 95.6422 42.3149 94.0901 42.3149C92.4154 42.3149 91.2111 41.7182 90.4799 40.5222V47.1544H87.6708V33.5435C87.6708 32.1934 87.6352 30.809 87.5667 29.389H90.0372L90.194 31.3925H90.2467C91.1821 29.8829 92.6038 29.1282 94.513 29.1282C96.0032 29.1282 97.2483 29.717 98.247 30.8959C99.2405 32.0774 99.7412 33.6291 99.7412 35.5536ZM96.8781 35.6563C96.8781 34.4261 96.6 33.4118 96.044 32.6122C95.4366 31.7811 94.6237 31.3648 93.6012 31.3648C92.9082 31.3648 92.2784 31.5967 91.7131 32.0537C91.1492 32.5148 90.7816 33.1167 90.609 33.8623C90.5233 34.21 90.4772 34.4932 90.4772 34.7172V36.826C90.4772 37.7441 90.7605 38.52 91.3218 39.1549C91.8857 39.7858 92.6183 40.1046 93.5222 40.1046C94.5815 40.1046 95.405 39.695 95.9926 38.8822C96.5829 38.0669 96.8781 36.992 96.8781 35.6563ZM116 37.1119C116 38.6043 115.478 39.8175 114.441 40.754C113.3 41.7762 111.707 42.2886 109.665 42.2886C107.778 42.2886 106.266 41.925 105.125 41.1966L105.774 38.8559C107.006 39.5856 108.359 39.9492 109.833 39.9492C110.892 39.9492 111.715 39.7094 112.303 39.2339C112.892 38.7571 113.19 38.1196 113.19 37.324C113.19 36.6113 112.943 36.0146 112.46 35.5286C111.974 35.0438 111.17 34.592 110.041 34.1771C106.971 33.0324 105.434 31.3582 105.434 29.1558C105.434 27.7174 105.977 26.5398 107.06 25.6191C108.143 24.6997 109.58 24.24 111.366 24.24C112.962 24.24 114.291 24.5179 115.347 25.0724L114.642 27.3618C113.648 26.8243 112.527 26.5556 111.273 26.5556C110.282 26.5556 109.504 26.7993 108.948 27.2841C108.481 27.7174 108.244 28.2456 108.244 28.8726C108.244 29.5642 108.514 30.1385 109.051 30.589C109.518 31.0039 110.369 31.4557 111.599 31.9405C113.109 32.549 114.219 33.2577 114.929 34.0717C115.644 34.8858 116 35.9013 116 37.1119ZM125.312 31.4965H122.215V37.6335C122.215 39.1944 122.761 39.9729 123.854 39.9729C124.356 39.9729 124.773 39.9307 125.102 39.8425L125.18 41.9751C124.626 42.1819 123.898 42.2859 122.995 42.2859C121.886 42.2859 121.019 41.9474 120.393 41.2704C119.77 40.5933 119.456 39.4592 119.456 37.8627V31.4913H117.612V29.3837H119.456V27.0694L122.215 26.2369V29.3837H125.312V31.4965ZM139.254 35.605C139.254 37.5479 138.698 39.143 137.589 40.3905C136.428 41.6747 134.884 42.3149 132.959 42.3149C131.101 42.3149 129.624 41.6998 128.522 40.4708C127.421 39.2392 126.87 37.6875 126.87 35.8157C126.87 33.857 127.439 32.2526 128.574 31.0052C129.711 29.7565 131.242 29.1321 133.167 29.1321C135.022 29.1321 136.512 29.7486 137.64 30.9789C138.718 32.1723 139.254 33.7134 139.254 35.605ZM136.342 35.6695C136.342 34.5117 136.092 33.5185 135.59 32.6873C135.001 31.6836 134.158 31.1817 133.065 31.1817C131.94 31.1817 131.077 31.6836 130.49 32.6873C129.986 33.5185 129.736 34.5288 129.736 35.7222C129.736 36.8814 129.986 37.8772 130.49 38.7057C131.097 39.7094 131.944 40.2113 133.042 40.2113C134.116 40.2113 134.958 39.6989 135.566 38.6807C136.083 37.8298 136.342 36.83 136.342 35.6695ZM148.389 31.8588C148.097 31.8061 147.8 31.78 147.504 31.7811C146.515 31.7811 145.751 32.1525 145.214 32.9007C144.747 33.5593 144.513 34.3918 144.513 35.3969V42.0291H141.704V33.3696C141.706 32.0428 141.679 30.716 141.622 29.3903H144.069L144.171 31.8087H144.249C144.547 30.9776 145.013 30.3071 145.654 29.8052C146.24 29.3667 146.952 29.1292 147.684 29.1282C147.944 29.1282 148.178 29.1466 148.386 29.1795L148.389 31.8588ZM160.952 35.111C160.959 35.5379 160.925 35.9645 160.849 36.3848H152.422C152.454 37.6335 152.862 38.5898 153.645 39.2484C154.355 39.8359 155.273 40.131 156.401 40.131C157.649 40.131 158.787 39.9334 159.811 39.5343L160.251 41.4824C159.055 42.0041 157.642 42.2635 156.013 42.2635C154.052 42.2635 152.513 41.6866 151.393 40.5354C150.276 39.3828 149.716 37.8337 149.716 35.8934C149.716 33.9887 150.236 32.4015 151.278 31.1356C152.369 29.7842 153.844 29.1084 155.699 29.1084C157.521 29.1084 158.901 29.7842 159.837 31.1356C160.579 32.2065 160.952 33.5343 160.952 35.111ZM158.274 34.3826C158.293 33.5488 158.109 32.8309 157.728 32.2237C157.242 31.4412 156.493 31.0513 155.491 31.0513C154.572 31.0513 153.824 31.432 153.255 32.196C152.787 32.8032 152.509 33.533 152.423 34.38L158.274 34.3826Z" fill="white"/>
<path d="M59.5693 18.3014C58.788 18.3014 58.112 18.2632 57.5494 18.1987V9.72363C58.3363 9.60211 59.1315 9.54221 59.9277 9.54449C63.1492 9.54449 64.6328 11.1291 64.6328 13.7122C64.6328 16.6918 62.8804 18.3014 59.5693 18.3014ZM60.041 10.6312C59.6062 10.6312 59.2359 10.6575 58.9289 10.7208V17.1633C59.095 17.1897 59.4138 17.2015 59.8618 17.2015C61.9726 17.2015 63.1742 16.0002 63.1742 13.7504C63.1742 11.7443 62.0872 10.6312 60.041 10.6312ZM69.2562 18.3659C67.4405 18.3659 66.2639 17.0105 66.2639 15.1704C66.2639 13.2525 67.4656 11.8852 69.3589 11.8852C71.1482 11.8852 72.3512 13.1761 72.3512 15.0689C72.3512 17.0105 71.1113 18.3659 69.2562 18.3659ZM69.3089 12.8942C68.3115 12.8942 67.6724 13.8268 67.6724 15.1308C67.6724 16.4099 68.3246 17.3425 69.2957 17.3425C70.2668 17.3425 70.919 16.3453 70.919 15.1045C70.919 13.84 70.2799 12.8942 69.3089 12.8942ZM82.7047 12.013L80.7613 18.225H79.4951L78.6901 15.5273C78.4899 14.8675 78.3232 14.1979 78.1907 13.5212H78.1644C78.0629 14.1982 77.8705 14.8766 77.6663 15.5273L76.8099 18.225H75.5305L73.7017 12.013H75.1207L75.8243 14.9662C75.9903 15.6696 76.13 16.3335 76.246 16.9605H76.2723C76.3738 16.4375 76.5398 15.7842 76.7835 14.9794L77.6663 12.0143H78.7915L79.6361 14.9161C79.8403 15.6195 80.0063 16.3098 80.1355 16.9618H80.1723C80.2619 16.3229 80.4029 15.6446 80.594 14.9161L81.349 12.0143L82.7047 12.013ZM89.8592 18.225H88.4784V14.658C88.4784 13.5594 88.0568 13.0088 87.2254 13.0088C86.4072 13.0088 85.8445 13.7122 85.8445 14.5302V18.225H84.4637V13.7886C84.4637 13.2393 84.4505 12.6505 84.4123 12.0116H85.6271L85.6917 12.9706H85.7299C86.1015 12.3067 86.8551 11.8852 87.6997 11.8852C89.0041 11.8852 89.8605 12.8823 89.8605 14.5052L89.8592 18.225ZM93.667 18.225H92.2849V9.16249H93.667V18.225ZM98.7015 18.3659C96.8872 18.3659 95.7093 17.0105 95.7093 15.1704C95.7093 13.2525 96.9109 11.8852 98.803 11.8852C100.594 11.8852 101.795 13.1761 101.795 15.0689C101.797 17.0105 100.555 18.3659 98.7015 18.3659ZM98.7529 12.8942C97.7555 12.8942 97.1165 13.8268 97.1165 15.1308C97.1165 16.4099 97.77 17.3425 98.7384 17.3425C99.7108 17.3425 100.362 16.3453 100.362 15.1045C100.363 13.84 99.7253 12.8942 98.7529 12.8942ZM107.239 18.225L107.139 17.5098H107.102C106.681 18.0854 106.066 18.3659 105.285 18.3659C104.172 18.3659 103.382 17.5862 103.382 16.5376C103.382 15.0044 104.711 14.2114 107.013 14.2114V14.0968C107.013 13.2788 106.579 12.8692 105.723 12.8692C105.11 12.8692 104.573 13.0233 104.1 13.3302L103.819 12.4226C104.393 12.0643 105.11 11.8852 105.952 11.8852C107.575 11.8852 108.395 12.7414 108.395 14.4551V16.7431C108.395 17.3701 108.423 17.8562 108.485 18.2263L107.239 18.225ZM107.05 15.1308C105.516 15.1308 104.747 15.5023 104.747 16.3835C104.747 17.0355 105.143 17.3543 105.694 17.3543C106.396 17.3543 107.05 16.8182 107.05 16.0898V15.1308ZM115.1 18.225L115.036 17.2279H114.997C114.601 17.9813 113.934 18.3659 113.003 18.3659C111.504 18.3659 110.395 17.0487 110.395 15.1954C110.395 13.2525 111.545 11.8839 113.116 11.8839C113.947 11.8839 114.536 12.1644 114.868 12.7282H114.896V9.16249H116.278V16.5508C116.278 17.1515 116.293 17.7139 116.329 18.225H115.1ZM114.896 14.5697C114.896 13.7003 114.32 12.9587 113.441 12.9587C112.418 12.9587 111.792 13.8663 111.792 15.144C111.792 16.3967 112.441 17.2542 113.414 17.2542C114.282 17.2542 114.896 16.4994 114.896 15.605V14.5697ZM125.041 18.3659C123.227 18.3659 122.05 17.0105 122.05 15.1704C122.05 13.2525 123.252 11.8852 125.144 11.8852C126.935 11.8852 128.136 13.1761 128.136 15.0689C128.138 17.0105 126.898 18.3659 125.041 18.3659ZM125.093 12.8942C124.097 12.8942 123.458 13.8268 123.458 15.1308C123.458 16.4099 124.11 17.3425 125.08 17.3425C126.052 17.3425 126.703 16.3453 126.703 15.1045C126.705 13.84 126.066 12.8942 125.093 12.8942ZM135.562 18.225H134.18V14.658C134.18 13.5594 133.758 13.0088 132.927 13.0088C132.109 13.0088 131.548 13.7122 131.548 14.5302V18.225H130.165V13.7886C130.165 13.2393 130.152 12.6505 130.114 12.0116H131.329L131.393 12.9706H131.432C131.802 12.3067 132.557 11.8839 133.4 11.8839C134.705 11.8839 135.562 12.881 135.562 14.5038V18.225ZM144.853 13.0483H143.333V16.0648C143.333 16.8327 143.6 17.216 144.137 17.216C144.381 17.216 144.585 17.1897 144.75 17.1515L144.788 18.2C144.521 18.3027 144.162 18.3541 143.717 18.3541C142.628 18.3541 141.978 17.7534 141.978 16.1807V13.0483H141.071V12.013H141.978V10.8749L143.333 10.4652V12.0116H144.853V13.0483ZM152.162 18.225H150.783V14.6843C150.783 13.5726 150.363 13.0101 149.53 13.0101C148.815 13.0101 148.148 13.4962 148.148 14.4801V18.225H146.768V9.16249H148.148V12.8942H148.175C148.61 12.2171 149.24 11.8839 150.044 11.8839C151.359 11.8839 152.162 12.906 152.162 14.5302V18.225ZM159.652 15.4509H155.508C155.534 16.6272 156.313 17.2911 157.466 17.2911C158.078 17.2911 158.642 17.1883 159.14 16.9974L159.355 17.9563C158.768 18.2118 158.076 18.3396 157.271 18.3396C155.327 18.3396 154.177 17.1119 154.177 15.2086C154.177 13.3038 155.355 11.872 157.115 11.872C158.703 11.872 159.699 13.0483 159.699 14.8252C159.708 15.0349 159.692 15.245 159.652 15.4509ZM158.385 14.467C158.385 13.508 157.902 12.831 157.019 12.831C156.226 12.831 155.599 13.5212 155.509 14.467H158.385Z" fill="white"/>
<defs>
<linearGradient id="paint0_linear_2023_14974" x1="130.387" y1="53.3452" x2="130.387" y2="-136.625" gradientUnits="userSpaceOnUse">
<stop stop-color="#1A1A1A" stop-opacity="0.1"/>
<stop offset="0.123" stop-color="#212121" stop-opacity="0.151"/>
<stop offset="0.308" stop-color="#353535" stop-opacity="0.227"/>
<stop offset="0.532" stop-color="#575757" stop-opacity="0.318"/>
<stop offset="0.783" stop-color="#858585" stop-opacity="0.421"/>
<stop offset="1" stop-color="#B3B3B3" stop-opacity="0.51"/>
</linearGradient>
</defs>
</svg>
