<svg width="178" height="53" viewBox="0 0 178 53" fill="none" xmlns="http://www.w3.org/2000/svg">
<g clip-path="url(#clip0_2023_14975)">
<path d="M171.19 53H6.58761C2.96628 53 0.00341797 50.0304 0.00341797 46.4008V6.80559C0.00341797 3.17601 2.96628 0.20639 6.58761 0.20639H171.19C174.811 0.20639 177.774 3.17601 177.774 6.80559V46.4008C177.774 50.0304 174.811 53 171.19 53Z" fill="#100F0D"/>
<path d="M171.19 0.20639H6.58761C2.96628 0.20639 0.00341797 3.17601 0.00341797 6.80559V46.4008C0.00341797 50.0304 2.96628 53 6.58761 53H171.19C174.811 53 177.774 50.0304 177.774 46.4008V6.80559C177.774 3.17601 174.811 0.20639 171.19 0.20639ZM171.19 1.26173C174.24 1.26173 176.721 3.74887 176.721 6.80559V46.4008C176.721 49.4575 174.24 51.9447 171.19 51.9447H6.58761C3.53784 51.9447 1.05744 49.4575 1.05744 46.4008V6.80559C1.05744 3.74887 3.53784 1.26173 6.58761 1.26173H171.19Z" fill="#A2A2A1"/>
<path d="M140.82 39.8016H143.277V23.3009H140.82V39.8016ZM162.952 29.2453L160.135 36.3987H160.051L157.128 29.2453H154.481L158.866 39.2433L156.365 44.8051H158.928L165.685 29.2457L162.952 29.2453ZM149.016 37.9273C148.213 37.9273 147.09 37.5236 147.09 36.526C147.09 35.2525 148.488 34.7643 149.694 34.7643C150.774 34.7643 151.284 34.9974 151.94 35.316C151.749 36.8446 150.436 37.9273 149.016 37.9273ZM149.314 28.8843C147.535 28.8843 145.693 29.67 144.93 31.4107L147.111 32.3232C147.577 31.4107 148.445 31.1137 149.356 31.1137C150.627 31.1137 151.919 31.8773 151.94 33.2363V33.4059C151.495 33.1512 150.541 32.7692 149.377 32.7692C147.025 32.7692 144.632 34.0637 144.632 36.4837C144.632 38.6914 146.56 40.1138 148.72 40.1138C150.371 40.1138 151.284 39.3708 151.854 38.5002H151.94V39.7746H154.313V33.4481C154.313 30.5187 152.129 28.8843 149.314 28.8843ZM134.128 31.2539H130.633V25.5982H134.128C135.965 25.5982 137.008 27.1223 137.008 28.426C137.008 29.7047 135.965 31.2539 134.128 31.2539ZM134.064 23.3013H128.177V39.802H130.633V33.5508H134.065C136.788 33.5508 139.465 31.5752 139.465 28.4266C139.465 25.2786 136.788 23.3013 134.064 23.3013ZM101.959 37.9301C100.261 37.9301 98.8405 36.505 98.8405 34.5496C98.8405 32.5713 100.261 31.1262 101.959 31.1262C103.635 31.1262 104.95 32.5714 104.95 34.5496C104.95 36.505 103.635 37.9301 101.959 37.9301ZM104.78 30.1689H104.695C104.144 29.5099 103.083 28.9145 101.747 28.9145C98.946 28.9145 96.3792 31.3815 96.3792 34.5496C96.3792 37.6961 98.946 40.1413 101.747 40.1413C103.083 40.1413 104.144 39.5458 104.695 38.8658H104.78V39.6732C104.78 41.8216 103.635 42.9692 101.789 42.9692C100.283 42.9692 99.3498 41.8849 98.9676 40.9708L96.8253 41.8637C97.44 43.3515 99.0731 45.1809 101.789 45.1809C104.675 45.1809 107.115 43.4794 107.115 39.3328V29.2546H104.78L104.78 30.1689ZM108.812 39.8011H111.272V23.3004H108.812V39.8011ZM114.9 34.3578C114.837 32.1888 116.577 31.0834 117.828 31.0834C118.804 31.0834 119.631 31.5727 119.908 32.2739L114.9 34.3578ZM122.537 32.4863C122.071 31.2325 120.649 28.9145 117.743 28.9145C114.857 28.9145 112.46 31.1896 112.46 34.528C112.46 37.675 114.837 40.1414 118.018 40.1414C120.585 40.1414 122.071 38.5685 122.686 37.6538L120.777 36.3778C120.14 37.3136 119.271 37.9302 118.018 37.9302C116.767 37.9302 115.876 37.3559 115.304 36.2289L122.792 33.1247L122.537 32.4863ZM62.8739 30.637V33.0184H68.5593C68.3896 34.3579 67.9441 35.3358 67.2651 36.0164C66.4375 36.8454 65.1433 37.76 62.8738 37.76C59.3733 37.76 56.6368 34.9322 56.6368 31.4237C56.6368 27.9153 59.3733 25.0871 62.8738 25.0871C64.762 25.0871 66.1407 25.8314 67.159 26.7883L68.8355 25.1081C67.4137 23.7475 65.5259 22.7056 62.8738 22.7056C58.0786 22.7056 54.0479 26.6181 54.0479 31.4237C54.0479 36.2288 58.0786 40.1414 62.8738 40.1414C65.4617 40.1414 67.4138 39.2908 68.941 37.6962C70.5109 36.1226 70.999 33.9114 70.999 32.125C70.999 31.5728 70.9563 31.0624 70.8714 30.637H62.8739ZM77.4635 37.9301C75.766 37.9301 74.3021 36.5267 74.3021 34.528C74.3021 32.508 75.766 31.1263 77.4635 31.1263C79.1604 31.1263 80.6243 32.508 80.6243 34.528C80.6243 36.5267 79.1604 37.9301 77.4635 37.9301ZM77.4635 28.9145C74.3653 28.9145 71.8411 31.2747 71.8411 34.528C71.8411 37.76 74.3653 40.1414 77.4635 40.1414C80.5606 40.1414 83.0853 37.76 83.0853 34.528C83.0853 31.2747 80.5606 28.9145 77.4635 28.9145ZM89.7272 37.9301C88.0308 37.9301 86.5664 36.5267 86.5664 34.528C86.5664 32.508 88.0309 31.1263 89.7272 31.1263C91.4248 31.1263 92.8882 32.508 92.8882 34.528C92.8882 36.5267 91.4248 37.9301 89.7272 37.9301ZM89.7272 28.9145C86.6301 28.9145 84.106 31.2747 84.106 34.528C84.106 37.76 86.6301 40.1414 89.7272 40.1414C92.8255 40.1414 95.3496 37.76 95.3496 34.528C95.3496 31.2747 92.8255 28.9145 89.7272 28.9145Z" fill="white"/>
<path d="M27.281 25.8429L13.2622 40.7568C13.2627 40.7599 13.2638 40.7625 13.2643 40.7657C13.6942 42.3851 15.1701 43.5776 16.9216 43.5776C17.6217 43.5776 18.2791 43.3879 18.8428 43.0548L18.8876 43.0285L34.6683 33.9016L27.281 25.8429Z" fill="#EB3131"/>
<path d="M41.4646 23.3038L41.4512 23.2946L34.6382 19.336L26.9624 26.1818L34.6648 33.9008L41.4419 29.9815C42.63 29.3386 43.4367 28.0832 43.4367 26.6354C43.4367 25.1981 42.641 23.9488 41.4646 23.3038Z" fill="#F6B60B"/>
<path d="M13.2603 12.4505C13.176 12.762 13.1317 13.0883 13.1317 13.4271V39.7813C13.1317 40.1195 13.1755 40.4469 13.2608 40.7572L27.7635 26.2244L13.2603 12.4505Z" fill="#5778C5"/>
<path d="M27.3846 26.6042L34.6412 19.3332L18.8782 10.1732C18.3053 9.82928 17.6365 9.63078 16.921 9.63078C15.1695 9.63078 13.6917 10.8254 13.2616 12.4468C13.2611 12.4483 13.2611 12.4494 13.2611 12.4508L27.3846 26.6042Z" fill="#3BAD49"/>
<path d="M62.4128 13.1157H58.5713V14.0685H61.4499C61.3717 14.8461 61.0631 15.4565 60.5425 15.8999C60.022 16.3433 59.3573 16.566 58.5713 16.566C57.7092 16.566 56.9787 16.2649 56.3801 15.6669C55.7936 15.0565 55.4954 14.3016 55.4954 13.3922C55.4954 12.4828 55.7936 11.728 56.3801 11.1176C56.9788 10.5196 57.7092 10.2205 58.5713 10.2205C59.0138 10.2205 59.4356 10.2968 59.8223 10.4639C60.2092 10.6308 60.5198 10.8639 60.7627 11.163L61.4931 10.4309C61.1618 10.0534 60.7421 9.76477 60.2214 9.5544C59.7009 9.34401 59.1577 9.24304 58.5712 9.24304C57.4211 9.24304 56.4459 9.64308 55.6496 10.4412C54.8533 11.2413 54.4541 12.2271 54.4541 13.3922C54.4541 14.5573 54.8532 15.5453 55.6496 16.3434C56.4459 17.1414 57.4211 17.5416 58.5712 17.5416C59.779 17.5416 60.742 17.1539 61.4827 16.366C62.135 15.7103 62.4683 14.8235 62.4683 13.714C62.4683 13.5264 62.4457 13.3261 62.4128 13.1157ZM63.901 9.42023V17.3641H68.5284V16.3886H64.9195V13.8686H68.1746V12.9158H64.9195V10.3978H68.5284V9.4202L63.901 9.42023ZM75.017 10.3978V9.42023H69.5706V10.3978H71.7846V17.3641H72.8031V10.3978H75.017ZM79.9479 9.42023H78.9294V17.3641H79.9479V9.42023ZM86.6705 10.3978V9.42023H81.2241V10.3978H83.438V17.3641H84.4564V10.3978H86.6705ZM96.948 10.4535C96.162 9.64302 95.1991 9.24297 94.0488 9.24297C92.8966 9.24297 91.9338 9.64301 91.1477 10.4412C90.3617 11.229 89.975 12.2167 89.975 13.3922C89.975 14.5676 90.3617 15.5555 91.1477 16.3434C91.9337 17.1413 92.8966 17.5415 94.0488 17.5415C95.1887 17.5415 96.1619 17.1414 96.948 16.3434C97.734 15.5555 98.1207 14.5677 98.1207 13.3922C98.1207 12.227 97.734 11.2412 96.948 10.4535ZM91.8782 11.1175C92.4646 10.5195 93.1847 10.2204 94.0488 10.2204C94.911 10.2204 95.6311 10.5195 96.2072 11.1175C96.7936 11.7053 97.0816 12.4723 97.0816 13.3921C97.0816 14.3141 96.7936 15.079 96.2072 15.6668C95.6311 16.2649 94.911 16.5659 94.0488 16.5659C93.1847 16.5659 92.4645 16.2649 91.8782 15.6668C91.304 15.0667 91.016 14.314 91.016 13.3921C91.016 12.4723 91.304 11.7176 91.8782 11.1175ZM100.54 12.4168L100.497 10.8844H100.54L104.569 17.364H105.633V9.42015H104.614V14.0684L104.658 15.6008H104.614L100.763 9.42015H99.522V17.364H100.54V12.4168Z" fill="white" stroke="white" stroke-width="0.143655" stroke-miterlimit="10"/>
</g>
<defs>
<clipPath id="clip0_2023_14975">
<rect width="177.778" height="52.7946" fill="white" transform="translate(0 0.205383)"/>
</clipPath>
</defs>
</svg>
