<svg xmlns="http://www.w3.org/2000/svg" version="1.1" xmlns:xlink="http://www.w3.org/1999/xlink" xmlns:svgjs="http://svgjs.com/svgjs" viewBox="0 0 810 810" fill="#ffffff" width="1000" height="1000"><rect width="810" height="810" fill="#ffffff" x="0" y="0"/><circle r="15" cx="285" cy="45" fill="#000000" opacity="1"/><circle r="15" cx="375" cy="45" fill="#000000" opacity="1"/><circle r="15" cx="435" cy="45" fill="#000000" opacity="1"/><circle r="15" cx="525" cy="45" fill="#000000" opacity="1"/><circle r="15" cx="315" cy="75" fill="#000000" opacity="1"/><circle r="15" cx="345" cy="75" fill="#000000" opacity="1"/><circle r="15" cx="375" cy="75" fill="#000000" opacity="1"/><circle r="15" cx="435" cy="75" fill="#000000" opacity="1"/><circle r="15" cx="525" cy="75" fill="#000000" opacity="1"/><circle r="15" cx="285" cy="105" fill="#000000" opacity="1"/><circle r="15" cx="405" cy="105" fill="#000000" opacity="1"/><circle r="15" cx="435" cy="105" fill="#000000" opacity="1"/><circle r="15" cx="525" cy="105" fill="#000000" opacity="1"/><circle r="15" cx="285" cy="135" fill="#000000" opacity="1"/><circle r="15" cx="345" cy="135" fill="#000000" opacity="1"/><circle r="15" cx="375" cy="135" fill="#000000" opacity="1"/><circle r="15" cx="405" cy="135" fill="#000000" opacity="1"/><circle r="15" cx="435" cy="135" fill="#000000" opacity="1"/><circle r="15" cx="465" cy="135" fill="#000000" opacity="1"/><circle r="15" cx="405" cy="165" fill="#000000" opacity="1"/><circle r="15" cx="465" cy="165" fill="#000000" opacity="1"/><circle r="15" cx="495" cy="165" fill="#000000" opacity="1"/><circle r="15" cx="525" cy="165" fill="#000000" opacity="1"/><circle r="15" cx="345" cy="195" fill="#000000" opacity="1"/><circle r="15" cx="465" cy="195" fill="#000000" opacity="1"/><circle r="15" cx="525" cy="195" fill="#000000" opacity="1"/><circle r="15" cx="345" cy="255" fill="#000000" opacity="1"/><circle r="15" cx="405" cy="255" fill="#000000" opacity="1"/><circle r="15" cx="45" cy="285" fill="#000000" opacity="1"/><circle r="15" cx="75" cy="285" fill="#000000" opacity="1"/><circle r="15" cx="105" cy="285" fill="#000000" opacity="1"/><circle r="15" cx="135" cy="285" fill="#000000" opacity="1"/><circle r="15" cx="315" cy="285" fill="#000000" opacity="1"/><circle r="15" cx="375" cy="285" fill="#000000" opacity="1"/><circle r="15" cx="495" cy="285" fill="#000000" opacity="1"/><circle r="15" cx="525" cy="285" fill="#000000" opacity="1"/><circle r="15" cx="555" cy="285" fill="#000000" opacity="1"/><circle r="15" cx="645" cy="285" fill="#000000" opacity="1"/><circle r="15" cx="675" cy="285" fill="#000000" opacity="1"/><circle r="15" cx="705" cy="285" fill="#000000" opacity="1"/><circle r="15" cx="765" cy="285" fill="#000000" opacity="1"/><circle r="15" cx="75" cy="315" fill="#000000" opacity="1"/><circle r="15" cx="105" cy="315" fill="#000000" opacity="1"/><circle r="15" cx="135" cy="315" fill="#000000" opacity="1"/><circle r="15" cx="195" cy="315" fill="#000000" opacity="1"/><circle r="15" cx="315" cy="315" fill="#000000" opacity="1"/><circle r="15" cx="375" cy="315" fill="#000000" opacity="1"/><circle r="15" cx="435" cy="315" fill="#000000" opacity="1"/><circle r="15" cx="525" cy="315" fill="#000000" opacity="1"/><circle r="15" cx="555" cy="315" fill="#000000" opacity="1"/><circle r="15" cx="615" cy="315" fill="#000000" opacity="1"/><circle r="15" cx="735" cy="315" fill="#000000" opacity="1"/><circle r="15" cx="45" cy="345" fill="#000000" opacity="1"/><circle r="15" cx="195" cy="345" fill="#000000" opacity="1"/><circle r="15" cx="255" cy="345" fill="#000000" opacity="1"/><circle r="15" cx="285" cy="345" fill="#000000" opacity="1"/><circle r="15" cx="345" cy="345" fill="#000000" opacity="1"/><circle r="15" cx="375" cy="345" fill="#000000" opacity="1"/><circle r="15" cx="405" cy="345" fill="#000000" opacity="1"/><circle r="15" cx="435" cy="345" fill="#000000" opacity="1"/><circle r="15" cx="525" cy="345" fill="#000000" opacity="1"/><circle r="15" cx="555" cy="345" fill="#000000" opacity="1"/><circle r="15" cx="615" cy="345" fill="#000000" opacity="1"/><circle r="15" cx="645" cy="345" fill="#000000" opacity="1"/><circle r="15" cx="75" cy="375" fill="#000000" opacity="1"/><circle r="15" cx="105" cy="375" fill="#000000" opacity="1"/><circle r="15" cx="165" cy="375" fill="#000000" opacity="1"/><circle r="15" cx="285" cy="375" fill="#000000" opacity="1"/><circle r="15" cx="345" cy="375" fill="#000000" opacity="1"/><circle r="15" cx="375" cy="375" fill="#000000" opacity="1"/><circle r="15" cx="405" cy="375" fill="#000000" opacity="1"/><circle r="15" cx="435" cy="375" fill="#000000" opacity="1"/><circle r="15" cx="495" cy="375" fill="#000000" opacity="1"/><circle r="15" cx="525" cy="375" fill="#000000" opacity="1"/><circle r="15" cx="615" cy="375" fill="#000000" opacity="1"/><circle r="15" cx="675" cy="375" fill="#000000" opacity="1"/><circle r="15" cx="705" cy="375" fill="#000000" opacity="1"/><circle r="15" cx="45" cy="405" fill="#000000" opacity="1"/><circle r="15" cx="105" cy="405" fill="#000000" opacity="1"/><circle r="15" cx="135" cy="405" fill="#000000" opacity="1"/><circle r="15" cx="165" cy="405" fill="#000000" opacity="1"/><circle r="15" cx="195" cy="405" fill="#000000" opacity="1"/><circle r="15" cx="255" cy="405" fill="#000000" opacity="1"/><circle r="15" cx="285" cy="405" fill="#000000" opacity="1"/><circle r="15" cx="315" cy="405" fill="#000000" opacity="1"/><circle r="15" cx="435" cy="405" fill="#000000" opacity="1"/><circle r="15" cx="465" cy="405" fill="#000000" opacity="1"/><circle r="15" cx="495" cy="405" fill="#000000" opacity="1"/><circle r="15" cx="555" cy="405" fill="#000000" opacity="1"/><circle r="15" cx="585" cy="405" fill="#000000" opacity="1"/><circle r="15" cx="645" cy="405" fill="#000000" opacity="1"/><circle r="15" cx="705" cy="405" fill="#000000" opacity="1"/><circle r="15" cx="735" cy="405" fill="#000000" opacity="1"/><circle r="15" cx="765" cy="405" fill="#000000" opacity="1"/><circle r="15" cx="75" cy="435" fill="#000000" opacity="1"/><circle r="15" cx="135" cy="435" fill="#000000" opacity="1"/><circle r="15" cx="165" cy="435" fill="#000000" opacity="1"/><circle r="15" cx="315" cy="435" fill="#000000" opacity="1"/><circle r="15" cx="405" cy="435" fill="#000000" opacity="1"/><circle r="15" cx="465" cy="435" fill="#000000" opacity="1"/><circle r="15" cx="495" cy="435" fill="#000000" opacity="1"/><circle r="15" cx="525" cy="435" fill="#000000" opacity="1"/><circle r="15" cx="585" cy="435" fill="#000000" opacity="1"/><circle r="15" cx="615" cy="435" fill="#000000" opacity="1"/><circle r="15" cx="645" cy="435" fill="#000000" opacity="1"/><circle r="15" cx="765" cy="435" fill="#000000" opacity="1"/><circle r="15" cx="75" cy="465" fill="#000000" opacity="1"/><circle r="15" cx="105" cy="465" fill="#000000" opacity="1"/><circle r="15" cx="165" cy="465" fill="#000000" opacity="1"/><circle r="15" cx="255" cy="465" fill="#000000" opacity="1"/><circle r="15" cx="285" cy="465" fill="#000000" opacity="1"/><circle r="15" cx="315" cy="465" fill="#000000" opacity="1"/><circle r="15" cx="345" cy="465" fill="#000000" opacity="1"/><circle r="15" cx="405" cy="465" fill="#000000" opacity="1"/><circle r="15" cx="645" cy="465" fill="#000000" opacity="1"/><circle r="15" cx="705" cy="465" fill="#000000" opacity="1"/><circle r="15" cx="735" cy="465" fill="#000000" opacity="1"/><circle r="15" cx="45" cy="495" fill="#000000" opacity="1"/><circle r="15" cx="135" cy="495" fill="#000000" opacity="1"/><circle r="15" cx="195" cy="495" fill="#000000" opacity="1"/><circle r="15" cx="285" cy="495" fill="#000000" opacity="1"/><circle r="15" cx="315" cy="495" fill="#000000" opacity="1"/><circle r="15" cx="375" cy="495" fill="#000000" opacity="1"/><circle r="15" cx="465" cy="495" fill="#000000" opacity="1"/><circle r="15" cx="495" cy="495" fill="#000000" opacity="1"/><circle r="15" cx="585" cy="495" fill="#000000" opacity="1"/><circle r="15" cx="615" cy="495" fill="#000000" opacity="1"/><circle r="15" cx="645" cy="495" fill="#000000" opacity="1"/><circle r="15" cx="765" cy="495" fill="#000000" opacity="1"/><circle r="15" cx="105" cy="525" fill="#000000" opacity="1"/><circle r="15" cx="135" cy="525" fill="#000000" opacity="1"/><circle r="15" cx="165" cy="525" fill="#000000" opacity="1"/><circle r="15" cx="255" cy="525" fill="#000000" opacity="1"/><circle r="15" cx="285" cy="525" fill="#000000" opacity="1"/><circle r="15" cx="435" cy="525" fill="#000000" opacity="1"/><circle r="15" cx="675" cy="525" fill="#000000" opacity="1"/><circle r="15" cx="705" cy="525" fill="#000000" opacity="1"/><circle r="15" cx="735" cy="525" fill="#000000" opacity="1"/><circle r="15" cx="765" cy="525" fill="#000000" opacity="1"/><circle r="15" cx="285" cy="555" fill="#000000" opacity="1"/><circle r="15" cx="315" cy="555" fill="#000000" opacity="1"/><circle r="15" cx="345" cy="555" fill="#000000" opacity="1"/><circle r="15" cx="375" cy="555" fill="#000000" opacity="1"/><circle r="15" cx="405" cy="555" fill="#000000" opacity="1"/><circle r="15" cx="705" cy="555" fill="#000000" opacity="1"/><circle r="15" cx="765" cy="555" fill="#000000" opacity="1"/><circle r="15" cx="405" cy="585" fill="#000000" opacity="1"/><circle r="15" cx="435" cy="585" fill="#000000" opacity="1"/><circle r="15" cx="465" cy="585" fill="#000000" opacity="1"/><circle r="15" cx="705" cy="585" fill="#000000" opacity="1"/><circle r="15" cx="735" cy="585" fill="#000000" opacity="1"/><circle r="15" cx="765" cy="585" fill="#000000" opacity="1"/><circle r="15" cx="315" cy="615" fill="#000000" opacity="1"/><circle r="15" cx="375" cy="615" fill="#000000" opacity="1"/><circle r="15" cx="405" cy="615" fill="#000000" opacity="1"/><circle r="15" cx="495" cy="615" fill="#000000" opacity="1"/><circle r="15" cx="735" cy="615" fill="#000000" opacity="1"/><circle r="15" cx="315" cy="645" fill="#000000" opacity="1"/><circle r="15" cx="465" cy="645" fill="#000000" opacity="1"/><circle r="15" cx="675" cy="645" fill="#000000" opacity="1"/><circle r="15" cx="285" cy="675" fill="#000000" opacity="1"/><circle r="15" cx="375" cy="675" fill="#000000" opacity="1"/><circle r="15" cx="435" cy="675" fill="#000000" opacity="1"/><circle r="15" cx="495" cy="675" fill="#000000" opacity="1"/><circle r="15" cx="555" cy="675" fill="#000000" opacity="1"/><circle r="15" cx="585" cy="675" fill="#000000" opacity="1"/><circle r="15" cx="645" cy="675" fill="#000000" opacity="1"/><circle r="15" cx="675" cy="675" fill="#000000" opacity="1"/><circle r="15" cx="705" cy="675" fill="#000000" opacity="1"/><circle r="15" cx="285" cy="705" fill="#000000" opacity="1"/><circle r="15" cx="315" cy="705" fill="#000000" opacity="1"/><circle r="15" cx="375" cy="705" fill="#000000" opacity="1"/><circle r="15" cx="405" cy="705" fill="#000000" opacity="1"/><circle r="15" cx="525" cy="705" fill="#000000" opacity="1"/><circle r="15" cx="555" cy="705" fill="#000000" opacity="1"/><circle r="15" cx="585" cy="705" fill="#000000" opacity="1"/><circle r="15" cx="645" cy="705" fill="#000000" opacity="1"/><circle r="15" cx="705" cy="705" fill="#000000" opacity="1"/><circle r="15" cx="735" cy="705" fill="#000000" opacity="1"/><circle r="15" cx="285" cy="735" fill="#000000" opacity="1"/><circle r="15" cx="375" cy="735" fill="#000000" opacity="1"/><circle r="15" cx="405" cy="735" fill="#000000" opacity="1"/><circle r="15" cx="435" cy="735" fill="#000000" opacity="1"/><circle r="15" cx="465" cy="735" fill="#000000" opacity="1"/><circle r="15" cx="645" cy="735" fill="#000000" opacity="1"/><circle r="15" cx="705" cy="735" fill="#000000" opacity="1"/><circle r="15" cx="285" cy="765" fill="#000000" opacity="1"/><circle r="15" cx="315" cy="765" fill="#000000" opacity="1"/><circle r="15" cx="375" cy="765" fill="#000000" opacity="1"/><circle r="15" cx="405" cy="765" fill="#000000" opacity="1"/><circle r="15" cx="435" cy="765" fill="#000000" opacity="1"/><circle r="15" cx="555" cy="765" fill="#000000" opacity="1"/><circle r="15" cx="615" cy="765" fill="#000000" opacity="1"/><circle r="15" cx="645" cy="765" fill="#000000" opacity="1"/><circle r="15" cx="675" cy="765" fill="#000000" opacity="1"/><circle r="15" cx="705" cy="765" fill="#000000" opacity="1"/><circle r="15" cx="735" cy="765" fill="#000000" opacity="1"/><circle r="15" cx="765" cy="765" fill="#000000" opacity="1"/><svg xmlns="http://www.w3.org/2000/svg" version="1.1" xmlns:xlink="http://www.w3.org/1999/xlink" xmlns:svgjs="http://svgjs.com/svgjs" width="210" height="210" viewBox="0 0 210 210" x="30" y="30"><path d="   M52.5 0 L157.5 0 A52.5 52.5 0 0 1 210 52.5 L210 157.5 A52.5 52.5 0 0 1 157.5 210 L52.5 210  A52.5 52.5 0 0 1 0 157.5 L0 52.5 A52.5 52.5 0 0 1 52.5 0 Z  M52.5 30 A22.5 22.5 0 0 0 30 52.5  L30 157.5 A22.5 22.5 0 0 0 52.5 180 L157.5 180 A22.5 22.5 0 0 0 180 157.5 L180 52.5 A22.5 22.5 0 0 0 157.5 30 L52.5 30 Z" fill="#000000" stroke-width="10"/></svg><svg xmlns="http://www.w3.org/2000/svg" version="1.1" xmlns:xlink="http://www.w3.org/1999/xlink" xmlns:svgjs="http://svgjs.com/svgjs" width="210" height="210" viewBox="0 0 210 210" x="570" y="30"><path d="   M52.5 0 L157.5 0 A52.5 52.5 0 0 1 210 52.5 L210 157.5 A52.5 52.5 0 0 1 157.5 210 L52.5 210  A52.5 52.5 0 0 1 0 157.5 L0 52.5 A52.5 52.5 0 0 1 52.5 0 Z  M52.5 30 A22.5 22.5 0 0 0 30 52.5  L30 157.5 A22.5 22.5 0 0 0 52.5 180 L157.5 180 A22.5 22.5 0 0 0 180 157.5 L180 52.5 A22.5 22.5 0 0 0 157.5 30 L52.5 30 Z" fill="#000000" stroke-width="10"/></svg><svg xmlns="http://www.w3.org/2000/svg" version="1.1" xmlns:xlink="http://www.w3.org/1999/xlink" xmlns:svgjs="http://svgjs.com/svgjs" width="210" height="210" viewBox="0 0 210 210" x="30" y="570"><path d="   M52.5 0 L157.5 0 A52.5 52.5 0 0 1 210 52.5 L210 157.5 A52.5 52.5 0 0 1 157.5 210 L52.5 210  A52.5 52.5 0 0 1 0 157.5 L0 52.5 A52.5 52.5 0 0 1 52.5 0 Z  M52.5 30 A22.5 22.5 0 0 0 30 52.5  L30 157.5 A22.5 22.5 0 0 0 52.5 180 L157.5 180 A22.5 22.5 0 0 0 180 157.5 L180 52.5 A22.5 22.5 0 0 0 157.5 30 L52.5 30 Z" fill="#000000" stroke-width="10"/></svg><svg xmlns="http://www.w3.org/2000/svg" version="1.1" xmlns:xlink="http://www.w3.org/1999/xlink" xmlns:svgjs="http://svgjs.com/svgjs" width="90" height="90" x="90" y="90"><rect width="90" height="90" fill="#000000" rx="22.5" ry="22.5"/></svg><svg xmlns="http://www.w3.org/2000/svg" version="1.1" xmlns:xlink="http://www.w3.org/1999/xlink" xmlns:svgjs="http://svgjs.com/svgjs" width="90" height="90" x="630" y="90"><rect width="90" height="90" fill="#000000" rx="22.5" ry="22.5"/></svg><svg xmlns="http://www.w3.org/2000/svg" version="1.1" xmlns:xlink="http://www.w3.org/1999/xlink" xmlns:svgjs="http://svgjs.com/svgjs" width="90" height="90" x="90" y="630"><rect width="90" height="90" fill="#000000" rx="22.5" ry="22.5"/></svg><circle r="15" cx="285" cy="225" fill="#000000" opacity="1"/><circle r="15" cx="225" cy="285" fill="#000000" opacity="1"/><circle r="15" cx="345" cy="225" fill="#000000" opacity="1"/><circle r="15" cx="225" cy="345" fill="#000000" opacity="1"/><circle r="15" cx="405" cy="225" fill="#000000" opacity="1"/><circle r="15" cx="225" cy="405" fill="#000000" opacity="1"/><circle r="15" cx="465" cy="225" fill="#000000" opacity="1"/><circle r="15" cx="225" cy="465" fill="#000000" opacity="1"/><circle r="15" cx="525" cy="225" fill="#000000" opacity="1"/><circle r="15" cx="225" cy="525" fill="#000000" opacity="1"/><circle r="15" cx="525" cy="525" fill="#000000" opacity="1"/><circle r="15" cx="525" cy="555" fill="#000000" opacity="1"/><circle r="15" cx="525" cy="585" fill="#000000" opacity="1"/><circle r="15" cx="525" cy="615" fill="#000000" opacity="1"/><circle r="15" cx="645" cy="555" fill="#000000" opacity="1"/><circle r="15" cx="645" cy="585" fill="#000000" opacity="1"/><circle r="15" cx="645" cy="615" fill="#000000" opacity="1"/><circle r="15" cx="645" cy="645" fill="#000000" opacity="1"/><circle r="15" cx="555" cy="525" fill="#000000" opacity="1"/><circle r="15" cx="585" cy="525" fill="#000000" opacity="1"/><circle r="15" cx="615" cy="525" fill="#000000" opacity="1"/><circle r="15" cx="645" cy="525" fill="#000000" opacity="1"/><circle r="15" cx="525" cy="645" fill="#000000" opacity="1"/><circle r="15" cx="555" cy="645" fill="#000000" opacity="1"/><circle r="15" cx="585" cy="645" fill="#000000" opacity="1"/><circle r="15" cx="615" cy="645" fill="#000000" opacity="1"/><circle r="15" cx="585" cy="585" fill="#000000" opacity="1"/></svg>