<svg width="459" height="89" viewBox="0 0 459 89" fill="none" xmlns="http://www.w3.org/2000/svg">
<path d="M42.989 75.0836C38.0921 75.3505 33.5232 74.7914 29.2823 73.4061C25.1 71.9555 21.4092 69.8253 18.2097 67.0155C15.0688 64.1404 12.5501 60.7029 10.6535 56.7031C8.81545 52.6379 7.76299 48.1569 7.49607 43.26C7.23253 38.4251 7.82607 33.9165 9.27669 29.7342C10.7893 25.5486 13.0125 21.8526 15.9462 18.6464C18.8799 15.4402 22.3777 12.887 26.4395 10.9871C30.5633 9.08369 35.0736 7.99855 39.9705 7.73163C43.0698 7.56269 46.1291 7.80004 49.1483 8.44368C52.1675 9.08731 54.9918 10.1457 57.6211 11.6188C60.3089 13.0265 62.6435 14.7954 64.6247 16.9256L55.465 28.5222C53.4286 26.5194 51.1695 24.995 48.6879 23.9491C46.2683 22.8997 43.6018 22.4545 40.6884 22.6133C38.209 22.7484 35.8772 23.3107 33.693 24.3001C31.5708 25.2862 29.7495 26.66 28.2291 28.4214C26.7087 30.1829 25.5461 32.2357 24.7413 34.5798C23.9366 36.924 23.6136 39.5527 23.7724 42.4661C23.9278 45.3174 24.5036 47.8972 25.4998 50.2053C26.5546 52.4481 27.9644 54.3607 29.7293 55.9431C31.5527 57.4601 33.6658 58.5883 36.0686 59.3277C38.5333 60.0638 41.2224 60.3524 44.1357 60.1936C46.0572 60.0888 47.8723 59.7412 49.5809 59.1507C51.3481 58.4949 52.9794 57.6288 54.475 56.5526C55.9706 55.4763 57.2425 54.288 58.2906 52.9874L66.6769 64.84C65.2804 66.5947 63.3177 68.2248 60.7886 69.7304C58.3215 71.2326 55.5293 72.4728 52.412 73.4509C49.3532 74.3637 46.2122 74.9079 42.989 75.0836Z" fill="#B2DDFF"/>
<path d="M70.0997 73.3465L73.1608 9.61787L86.8539 10.2756L85.5426 37.5756L82.651 38.4725C83.3818 36.436 84.591 34.6238 86.2785 33.036C88.0262 31.3936 90.0732 30.1108 92.4193 29.1877C94.7655 28.2646 97.2017 27.8637 99.7279 27.985C103.173 28.1505 106.038 29.0074 108.323 30.5558C110.61 32.0468 112.261 34.2265 113.274 37.0949C114.347 39.9087 114.786 43.3537 114.59 47.43L113.246 75.419L99.3804 74.753L100.675 47.7975C100.763 45.9603 100.578 44.4264 100.119 43.1959C99.6606 41.9654 98.9282 41.0383 97.9224 40.4145C96.9165 39.7907 95.6371 39.4703 94.0842 39.4533C92.8785 39.3954 91.7493 39.5425 90.6966 39.8948C89.6466 40.1896 88.7018 40.6909 87.8622 41.3987C87.0827 42.0518 86.4699 42.828 86.0239 43.7273C85.5779 44.6266 85.3273 45.6504 85.2722 46.7987L83.965 74.0125L76.9893 73.6774C75.4966 73.6057 74.1473 73.5409 72.9417 73.483C71.7934 73.4279 70.8461 73.3824 70.0997 73.3465Z" fill="#B2DDFF"/>
<path d="M143.624 74.4545L144.958 46.3788C145.069 44.0248 144.491 42.271 143.222 41.1174C142.014 39.9091 140.261 39.2504 137.965 39.1413C135.725 39.0349 133.695 39.37 131.875 40.1467C130.114 40.8686 128.385 42.1388 126.687 43.9571L118.8 35.555C121.69 32.8726 124.953 30.8121 128.589 29.3736C132.225 27.9352 136.138 27.3155 140.33 27.5146C144.176 27.6973 147.479 28.4297 150.238 29.7116C152.997 30.9936 155.095 32.8484 156.534 35.276C157.972 37.7037 158.605 40.7261 158.433 44.3432L156.973 75.0887L143.624 74.4545ZM131.698 74.7511C128.827 74.6147 126.242 73.9165 123.943 72.6564C121.701 71.399 119.939 69.7328 118.656 67.6578C117.434 65.5281 116.888 63.0853 117.019 60.3294C117.131 57.9754 117.66 55.929 118.605 54.19C119.551 52.4511 120.884 51.047 122.603 49.9778C124.383 48.854 126.55 48.065 129.103 47.6108C131.717 47.102 134.717 46.9281 138.105 47.089L151.971 47.7478L150.782 56.4092L138.036 55.8037C136.83 55.7464 135.763 55.8108 134.833 55.9968C133.906 56.1254 133.116 56.4044 132.463 56.8337C131.812 57.2056 131.301 57.6704 130.929 58.2282C130.615 58.7887 130.439 59.4709 130.401 60.2747C130.36 61.1359 130.554 61.8932 130.983 62.5466C131.412 63.1999 131.992 63.7166 132.722 64.0966C133.51 64.4792 134.42 64.6951 135.453 64.7442C136.946 64.8151 138.364 64.6523 139.706 64.2557C141.109 63.8045 142.349 63.1441 143.426 62.2745C144.56 61.4077 145.472 60.3865 146.161 59.2108L148.277 65.5261C146.979 67.4209 145.433 69.0738 143.64 70.4847C141.904 71.8984 140.011 72.9881 137.96 73.7539C135.967 74.5224 133.88 74.8548 131.698 74.7511Z" fill="#B2DDFF"/>
<path d="M170.874 57.9969L168.945 45.4702L198.26 40.9584L200.188 53.4851L170.874 57.9969Z" fill="#B2DDFF"/>
<path d="M238.444 75.0198C233.59 75.2284 229.07 74.6223 224.885 73.2016C220.758 71.7167 217.126 69.5643 213.988 66.7442C210.91 63.8601 208.454 60.4259 206.62 56.4417C204.846 52.3935 203.854 47.9422 203.646 43.0879C203.44 38.2951 204.079 33.8354 205.564 29.7086C207.11 25.5793 209.355 21.9432 212.298 18.8003C215.241 15.6574 218.735 13.1681 222.781 11.3321C226.888 9.49358 231.369 8.47003 236.223 8.26148C239.295 8.12949 242.323 8.39954 245.307 9.07163C248.291 9.74372 251.076 10.8245 253.664 12.3138C256.311 13.7391 258.604 15.5182 260.542 17.6511L251.336 29.035C249.341 27.0276 247.12 25.4917 244.674 24.4272C242.289 23.36 239.652 22.8885 236.764 23.0125C234.306 23.1181 231.99 23.6486 229.815 24.6039C227.701 25.5565 225.881 26.8967 224.355 28.6243C222.828 30.352 221.653 32.3724 220.829 34.6855C220.005 36.9986 219.655 39.5992 219.779 42.4872C219.901 45.3137 220.442 47.876 221.402 50.174C222.422 52.4079 223.797 54.3187 225.527 55.9065C227.316 57.4302 229.396 58.572 231.768 59.3319C234.202 60.0892 236.862 60.4058 239.75 60.2818C241.655 60.1999 243.457 59.8763 245.157 59.3108C246.915 58.6812 248.541 57.8418 250.035 56.7927C251.529 55.7436 252.802 54.5808 253.856 53.3043L262.028 65.142C260.625 66.8645 258.662 68.457 256.139 69.9197C253.678 71.3797 250.898 72.5765 247.798 73.5099C244.758 74.3793 241.64 74.8826 238.444 75.0198Z" fill="#B2DDFF"/>
<path d="M265.344 75.0676L263.284 11.2987L276.986 10.8562L277.868 38.1734L275.058 39.2993C275.623 37.2107 276.683 35.3074 278.238 33.5895C279.848 31.8122 281.786 30.3694 284.05 29.261C286.315 28.1527 288.711 27.5577 291.239 27.4761C294.686 27.3648 297.61 27.9892 300.012 29.3493C302.412 30.652 304.232 32.6923 305.472 35.4703C306.767 38.1889 307.481 41.5876 307.613 45.6665L308.517 73.6731L294.643 74.1213L293.772 47.1487C293.713 45.3104 293.405 43.7963 292.849 42.6066C292.293 41.4168 291.488 40.5514 290.436 40.0103C289.383 39.4692 288.082 39.2525 286.533 39.36C285.327 39.399 284.213 39.6362 283.192 40.0718C282.169 40.4499 281.267 41.0253 280.487 41.7982C279.762 42.5117 279.214 43.3345 278.841 44.2667C278.469 45.1989 278.301 46.2395 278.338 47.3885L279.218 74.6195L272.238 74.8449C270.744 74.8932 269.394 74.9368 268.188 74.9758C267.039 75.0129 266.091 75.0435 265.344 75.0676Z" fill="#B2DDFF"/>
<path d="M314.68 74.6119L312.787 28.8687L326.657 28.2947L328.55 74.0379L314.68 74.6119ZM319.391 19.5347C316.749 19.644 314.656 19.1266 313.113 17.9823C311.625 16.7783 310.834 15.0277 310.739 12.7305C310.651 10.6055 311.326 8.85174 312.764 7.46904C314.203 6.08635 316.214 5.34152 318.799 5.23456C321.326 5.12997 323.333 5.6797 324.821 6.88375C326.364 8.02798 327.183 9.7487 327.278 12.0459C327.366 14.1708 326.691 15.9246 325.253 17.3073C323.871 18.6876 321.917 19.4301 319.391 19.5347Z" fill="#B2DDFF"/>
<path d="M333 75.3338L330.931 29.5982L344.109 29.0021L345.046 38.2809L342.251 39.443C342.789 37.3473 343.824 35.4305 345.357 33.6925C346.944 31.8946 348.863 30.4269 351.113 29.2894C353.363 28.152 355.751 27.5261 358.278 27.4118C361.723 27.2559 364.655 27.8425 367.074 29.1716C369.491 30.4432 371.337 32.4598 372.613 35.2215C373.943 37.9231 374.701 41.3124 374.885 45.3892L376.151 73.3818L362.284 74.0091L361.065 47.0501C360.982 45.2126 360.654 43.7027 360.083 42.5202C359.512 41.3377 358.696 40.4828 357.637 39.9553C356.577 39.4279 355.273 39.2279 353.726 39.3555C352.52 39.41 351.409 39.6617 350.394 40.1103C349.376 40.5016 348.482 41.0887 347.712 41.8715C346.996 42.5943 346.459 43.4242 346.098 44.3611C345.738 45.298 345.584 46.3407 345.635 47.4891L346.867 74.7065L339.89 75.0221C338.397 75.0896 337.048 75.1507 335.842 75.2052C334.693 75.2571 333.746 75.3 333 75.3338Z" fill="#B2DDFF"/>
<path d="M398.137 84.5768C394.689 84.3091 391.255 83.5275 387.833 82.2321C384.46 80.9948 381.759 79.4845 379.73 77.7011L384.97 68.8409C386.602 70.1599 388.47 71.2262 390.575 72.04C392.729 72.9118 394.991 73.4397 397.362 73.6237C400.109 73.837 402.376 73.6066 404.162 72.9324C405.949 72.2583 407.309 71.1445 408.242 69.5912C409.23 68.0421 409.818 66.0555 410.006 63.6314L410.558 56.5207L412.944 57.1938C412.491 58.8386 411.454 60.3297 409.833 61.667C408.266 63.0085 406.371 64.0266 404.15 64.7212C401.928 65.4158 399.632 65.671 397.262 65.487C393.383 65.1858 389.978 64.0272 387.045 62.0111C384.117 59.9412 381.887 57.2481 380.357 53.9318C378.884 50.5658 378.31 46.782 378.637 42.5802C378.971 38.2708 380.13 34.513 382.113 31.307C384.15 28.1052 386.75 25.6787 389.913 24.0276C393.076 22.3764 396.543 21.6972 400.314 21.99C401.876 22.1113 403.37 22.417 404.795 22.907C406.278 23.3473 407.614 23.9388 408.803 24.6814C410.046 25.4282 411.121 26.2433 412.027 27.1266C412.988 28.0141 413.754 28.9678 414.325 29.9876C414.896 31.0074 415.225 32.0084 415.311 32.9906L412.582 33.5916L413.82 23.9329L426.183 24.8929L423.127 64.2438C422.855 67.7452 422.074 70.8278 420.783 73.4914C419.547 76.1592 417.831 78.3564 415.638 80.0828C413.498 81.8135 410.964 83.0527 408.033 83.8007C405.099 84.6025 401.8 84.8612 398.137 84.5768ZM400.713 55.5937C402.813 55.7568 404.654 55.4391 406.233 54.6404C407.866 53.846 409.152 52.6451 410.089 51.0379C411.081 49.4349 411.663 47.5291 411.834 45.3205C412.014 43.0042 411.738 40.9776 411.005 39.2408C410.327 37.5081 409.242 36.1232 407.751 35.0862C406.318 33.9994 404.551 33.3745 402.45 33.2113C400.457 33.0566 398.669 33.4055 397.085 34.258C395.506 35.0566 394.22 36.2574 393.229 37.8604C392.291 39.4676 391.735 41.4024 391.559 43.6649C391.383 45.9274 391.634 47.925 392.313 49.6576C393.045 51.3945 394.13 52.7793 395.567 53.8122C397.004 54.8451 398.719 55.4389 400.713 55.5937Z" fill="#B2DDFF"/>
<path d="M437.785 52.3857C437.588 48.2131 437.435 43.9442 437.324 39.5789C437.219 35.1473 437.211 30.7586 437.299 26.4127C437.393 22.0005 437.631 17.8367 438.012 13.9213L438.72 6.65466L455.642 8.30199L454.935 15.5687C454.547 19.5504 453.971 23.7483 453.207 28.1623C452.448 32.5099 451.591 36.8478 450.633 41.176C449.683 45.4379 448.718 49.4975 447.74 53.3547L437.785 52.3857ZM440.085 79.3391C437.364 79.0742 435.315 78.1044 433.937 76.4294C432.566 74.6882 432.019 72.3907 432.297 69.5371C432.549 66.949 433.555 64.8698 435.316 63.2994C437.077 61.729 439.251 61.0698 441.839 61.3217C444.56 61.5866 446.606 62.5897 447.977 64.3309C449.355 66.0059 449.902 68.3033 449.618 71.2232C449.359 73.8777 448.353 75.957 446.599 77.461C444.845 78.965 442.673 79.5911 440.085 79.3391Z" fill="#B2DDFF"/>
</svg>
