<svg width="313" height="89" viewBox="0 0 313 89" fill="none" xmlns="http://www.w3.org/2000/svg">
<g clip-path="url(#clip0_103_2090)">
<path d="M41.0094 69.7831C39.6456 70.7013 38.1603 71.4034 36.5534 71.876C34.9466 72.3486 33.1912 72.5782 31.3008 72.5377C28.6812 72.4837 26.3317 71.7815 24.2522 70.4312C22.1727 69.0809 20.5524 67.285 19.3911 65.0435C18.2299 62.802 17.6897 60.304 17.7438 57.5359C17.7978 54.7002 18.4324 52.1617 19.6342 49.9337C20.8359 47.7057 22.5103 45.9773 24.6438 44.735C26.7773 43.5062 29.2213 42.9121 31.9894 42.9796C33.7988 43.0201 35.5407 43.3442 37.2016 43.9518C38.8624 44.573 40.3748 45.3967 41.7386 46.4499C43.1024 47.5031 44.2366 48.6509 45.1683 49.8932L54.8905 38.5236C52.487 35.2694 49.1382 32.6768 44.8443 30.7459C40.5503 28.8015 35.8243 27.7888 30.6661 27.6807C25.0624 27.5727 20.0123 28.7745 15.4753 31.2995C10.9517 33.8246 7.37346 37.3354 4.74037 41.8319C2.10729 46.3284 0.729983 51.4865 0.608456 57.2928C0.500432 62.9641 1.66169 68.0952 4.11923 72.6997C6.57678 77.2907 10.0065 80.9501 14.4355 83.6507C18.851 86.3512 23.8606 87.7691 29.4644 87.8771C34.4065 87.9716 39.119 87.1479 43.5885 85.379C48.058 83.6101 51.5688 81.2336 54.0938 78.2224L44.8308 66.4748C43.6425 67.7576 42.3597 68.8649 40.9959 69.7831H41.0094Z" fill="#4ABA2C"/>
<path d="M98.8022 36.1201C97.8705 34.8103 96.7903 33.5951 95.5345 32.5013C93.8196 31.0025 91.8482 29.8007 89.5932 28.8825C87.3382 27.9778 84.7996 27.4512 81.964 27.3162C76.9544 27.0731 72.4444 28.1263 68.434 30.4894C64.4236 32.8524 61.1829 36.2416 58.7118 40.6706C56.2408 45.0996 54.8635 50.2577 54.5799 56.1451C54.2964 61.8838 55.1876 67.0825 57.213 71.7275C59.2385 76.3725 62.1281 80.0994 65.8414 82.908C69.5683 85.7031 73.8217 87.2289 78.6153 87.4585C81.2348 87.58 83.7194 87.31 86.0824 86.6213C88.4454 85.9326 90.5924 84.9469 92.5098 83.6507C93.9682 82.6649 95.278 81.5442 96.4392 80.2884L96.1016 87.2019L113.75 88.0526L116.545 30.1923L99.1128 29.3551L98.7887 36.1336L98.8022 36.1201ZM95.9396 66.0968C94.7378 68.2977 93.1445 69.9856 91.1595 71.1604C89.1746 72.3351 86.8386 72.8618 84.1515 72.7402C81.6129 72.6187 79.3849 71.876 77.4945 70.5122C75.5906 69.1484 74.1728 67.312 73.2276 65.0165C72.2823 62.7075 71.8773 60.0339 72.0258 56.9822C72.1743 53.863 72.836 51.1894 73.9972 48.9885C75.1585 46.7875 76.7518 45.0996 78.7773 43.9248C80.8027 42.7501 83.0847 42.2235 85.6233 42.345C88.3104 42.48 90.5789 43.2227 92.4558 44.5865C94.3192 45.9503 95.7371 47.7867 96.7228 50.0957C97.7085 52.4047 98.1136 55.1188 97.965 58.238C97.8165 61.2897 97.1414 63.9228 95.9396 66.1103V66.0968Z" fill="#4ABA2C"/>
<path d="M167.303 61.7623C166.668 60.1554 165.696 58.7781 164.4 57.6034C162.86 56.091 160.848 54.7948 158.35 53.728C155.852 52.6613 152.868 51.7566 149.411 50.9869C146.684 50.4063 144.483 49.8797 142.822 49.38C141.161 48.8804 139.986 48.4754 139.311 48.1513C138.555 47.6787 137.961 47.1521 137.529 46.5579C137.097 45.9638 136.854 45.2616 136.813 44.465C136.773 43.8168 136.894 43.2092 137.151 42.6421C137.407 42.0749 137.799 41.5888 138.326 41.1567C138.852 40.7246 139.527 40.4006 140.351 40.171C141.175 39.9415 142.133 39.8064 143.227 39.7389C144.685 39.6579 146.252 39.8874 147.967 40.4141C149.668 40.9407 151.383 41.6428 153.111 42.534C154.84 43.4252 156.352 44.4515 157.648 45.6127L166.344 34.7563C164.278 33.0549 161.969 31.6101 159.39 30.4354C156.811 29.2606 154.07 28.3964 151.167 27.8293C148.264 27.2621 145.212 27.0596 142.012 27.2351C137.947 27.4512 134.207 28.4099 130.804 30.0843C127.402 31.7586 124.701 34.0001 122.703 36.8088C120.704 39.6174 119.799 42.7906 120.002 46.3554C120.123 48.6779 120.623 50.7574 121.487 52.6073C122.351 54.4572 123.553 56.064 125.079 57.4413C126.767 58.9537 128.887 60.25 131.466 61.3572C134.045 62.4509 137.056 63.3421 140.513 64.0308C142.944 64.4764 144.928 64.9355 146.481 65.3946C148.034 65.8537 149.114 66.2453 149.709 66.5829C150.978 67.2445 151.653 68.2977 151.734 69.7426C151.774 70.4717 151.666 71.1064 151.396 71.6735C151.14 72.2406 150.748 72.7267 150.222 73.1588C149.695 73.5909 149.074 73.9285 148.372 74.185C147.656 74.4416 146.832 74.6036 145.887 74.6441C143.349 74.7792 140.635 74.4011 137.745 73.5099C134.855 72.6052 132.222 71.0929 129.846 68.9729L119.664 78.7085C122.446 81.6927 126.065 83.9477 130.521 85.4871C134.977 87.0264 139.959 87.6475 145.482 87.3505C150.127 87.0939 154.205 86.0542 157.716 84.2313C161.227 82.3949 163.927 80.0048 165.845 77.0207C167.762 74.0365 168.613 70.7013 168.41 66.988C168.302 65.0975 167.938 63.3556 167.303 61.7488V61.7623Z" fill="#4ABA2C"/>
<path d="M218.344 29.8682C215.374 28.0588 211.714 27.1406 207.353 27.1001C204.153 27.0731 201.087 27.7077 198.171 28.9905C195.254 30.2733 192.743 31.9747 190.65 34.1082C190.393 34.3647 190.177 34.6483 189.934 34.9183L190.177 5.36029L172.839 5.21176L172.164 85.9327C173.109 85.9327 174.324 85.9462 175.823 85.9597C177.309 85.9597 178.997 85.9867 180.9 86.0002L189.731 86.0812L190.015 51.608C190.015 50.1497 190.299 48.8534 190.812 47.6922C191.325 46.5309 192.081 45.5047 193.067 44.6C194.052 43.6953 195.214 43.0201 196.523 42.561C197.833 42.1019 199.251 41.8724 200.79 41.8859C202.762 41.8319 204.382 42.1695 205.692 42.9121C206.988 43.6548 207.974 44.789 208.609 46.3149C209.257 47.8407 209.567 49.7716 209.54 52.1077L209.257 86.2567L226.824 86.4053L227.121 50.9599C227.162 45.8018 226.46 41.4403 224.988 37.9025C223.529 34.3647 221.315 31.6911 218.344 29.8817V29.8682Z" fill="#4ABA2C"/>
<path d="M238.869 18.1071C242.069 17.9316 244.54 16.9594 246.295 15.1905C248.051 13.4216 248.861 11.1936 248.712 8.50649C248.55 5.60335 247.511 3.41586 245.566 1.95754C243.635 0.499214 241.07 -0.14893 237.87 0.026609C234.602 0.202148 232.063 1.17436 230.267 2.95676C228.471 4.72565 227.648 6.96715 227.796 9.64074C227.958 12.5439 228.998 14.7314 230.943 16.1897C232.887 17.648 235.52 18.2827 238.855 18.1071H238.869Z" fill="#4ABA2C"/>
<path d="M248.207 29.0629L230.666 30.019L233.819 87.861L251.36 86.9049L248.207 29.0629Z" fill="#4ABA2C"/>
<path d="M295.473 28.3424L293.502 62.7615C293.421 64.2198 293.083 65.5431 292.503 66.7449C291.922 67.9467 291.152 68.9864 290.194 69.8371C289.235 70.6878 288.128 71.3224 286.858 71.7275C285.603 72.1326 284.198 72.2811 282.686 72.2001C279.634 72.0246 277.312 70.8903 275.718 68.7974C274.125 66.7044 273.436 63.8823 273.639 60.3175L275.543 27.2081L258.003 26.1954L255.95 61.9108C255.667 66.7719 256.247 70.9848 257.692 74.5226C259.137 78.0604 261.311 80.8555 264.254 82.881C267.198 84.9064 270.776 86.0407 274.989 86.2837C278.19 86.4728 281.228 86.0272 284.131 84.9469C287.034 83.8802 289.586 82.3139 291.774 80.2479C292.3 79.7483 292.8 79.2352 293.245 78.7085V86.2432L309.678 87.1884L313 29.3551L295.46 28.3424H295.473Z" fill="#4ABA2C"/>
</g>
<defs>
<clipPath id="clip0_103_2090">
<rect width="312.392" height="88.0395" fill="white" transform="translate(0.607422)"/>
</clipPath>
</defs>
</svg>
